<?xml version="1.0" encoding="utf-8"?>
<!-- Generator: Adobe Illustrator 21.0.0, SVG Export Plug-In . SVG Version: 6.00 Build 0)  -->
<svg version="1.1" id="Capa_1" xmlns="http://www.w3.org/2000/svg" xmlns:xlink="http://www.w3.org/1999/xlink" x="0px" y="0px"
	 viewBox="0 0 100 100" style="enable-background:new 0 0 100 100;" xml:space="preserve">
<style type="text/css">
	.st0{fill:#FFFFFF;stroke:#000000;stroke-width:3;stroke-miterlimit:10;}
</style>
<title>Recurso 8</title>
<g id="Capa_2">
	<g id="Capa_1-2">
		<circle class="st0" cx="50" cy="50" r="48.5"/>
	</g>
</g>
<g id="whAV6I.tif">
	<g>
		<path d="M81.5,21.2c0,0.9-0.1,1.7-0.1,2.6c-0.2,2.2-0.5,4.4-1.1,6.5c-0.5,1.9-1.2,3.8-2.3,5.5c-1.4,2.1-3.4,3.6-5.7,4.6
			c-2.8,1.2-5.8,1.3-8.7,0.4c-0.8-0.2-1.3-0.7-1.5-1.5c-0.5-1.4-0.7-2.8-0.6-4.2c0.2-3.6,1.7-6.6,4.1-9.1c1.3-1.3,3-2.2,4.7-2.8
			c2.2-0.9,4.6-1.4,6.9-1.7c1.2-0.1,2.4-0.2,3.6-0.3C81,21.1,81.2,21.2,81.5,21.2z"/>
		<path d="M51.7,78.8c-0.9,1.6-2,3-3.3,4.1c-2.7,2.5-5.9,4-9.5,4.8c-1.6,0.4-3.2,0.6-4.8,0.5c-4.2-0.2-7.6-2-9.9-5.6
			c-1.2-1.8-0.5-3.8,0.6-5.1c1.1-1.3,2.6-2,4.1-2.5c2.3-0.7,4.6-0.9,7-0.8c4.4,0.2,8.6,1.2,12.7,2.9C49.6,77.8,50.6,78.3,51.7,78.8z
			"/>
		<path d="M22.5,50.2c0.4,0.6,0.8,1.2,1.1,1.8c1.3,2.6,2.2,5.3,2.8,8.1c0.6,2.7,0.9,5.5,0.7,8.3c-0.1,2.4-0.6,4.8-1.9,7
			c-0.8,1.4-2,2.4-3.6,2.7c-1.1,0.2-2,0.1-2.9-0.5c-2-1.3-3.4-3.1-4.3-5.3c-1.1-2.5-1.4-5.1-1-7.8c0.5-3.7,1.8-7.1,4.2-10.1
			c1.3-1.7,2.9-3,4.7-4.1C22.3,50.3,22.4,50.3,22.5,50.2z"/>
		<path d="M65.5,64.4c-0.6,0.9-1.2,1.8-1.9,2.6c-3.1,3.7-7.1,5.9-11.8,6.8c-2.1,0.4-4.3,0.5-6.4,0c-3-0.7-5.5-2.3-7.3-4.8
			c-0.7-1-0.7-2,0-3c0.9-1.4,2.2-2.5,3.6-3.4c2.3-1.4,4.8-2.1,7.5-2.3c3.8-0.2,7.6,0.2,11.2,1.5c1.7,0.6,3.4,1.3,4.9,2.4
			c0.1,0.1,0.2,0.1,0.2,0.2C65.4,64.3,65.4,64.3,65.5,64.4C65.4,64.4,65.4,64.4,65.5,64.4z"/>
		<path d="M37.4,36.5c0.8,1,1.4,2.1,1.8,3.2c1.7,3.9,2.5,8,2.3,12.3c-0.1,2.4-0.6,4.7-1.6,6.9c-0.9,1.8-2,3.4-3.7,4.5c0,0,0,0,0,0
			c-1.1,0.8-2.1,0.8-3.3,0c-2-1.3-3.4-3.1-4.3-5.2c-0.8-1.9-1.1-3.8-1-5.8c0.4-5.6,2.7-10.3,7-14c0.6-0.5,1.2-0.9,1.8-1.3
			C36.7,36.9,37.1,36.7,37.4,36.5z"/>
		<path d="M56.9,23.8c0.1,0.6,0.2,1.2,0.2,1.9c0.1,2,0.2,4,0.2,6c0,3.9-0.5,7.8-1.8,11.5c-0.9,2.5-2.4,4.6-4.8,5.9
			c-1,0.5-2.1,0.8-3.3,0.6c-0.4-0.1-0.7-0.3-1-0.6c-1.4-1.3-2.2-2.9-2.8-4.6c-1-3-0.9-5.9-0.1-8.9c1.1-4,3.5-7,6.9-9.2
			c1.7-1.1,3.6-2,5.7-2.4C56.3,23.9,56.6,23.8,56.9,23.8z"/>
		<path d="M71.1,44.9c1.9,0,3.9,0.1,5.8,0.5c0.7,0.1,0.7,0.1,0.6,0.8c-0.2,1.6-0.9,3.2-1.7,4.6c-1.5,2.6-3.5,4.8-6.1,6.3
			c-1.7,1-3.6,1.6-5.5,1.8c-2.3,0.3-4.6,0.1-6.8-0.7c-1.5-0.5-2.8-1.3-4.1-2.3c-0.8-0.7-1.2-1.5-1.1-2.6c0.1-0.8,0.4-1.6,0.8-2.3
			c1-1.7,2.4-2.9,4.2-3.7c1.8-0.9,3.7-1.4,5.6-1.8C65.5,45.1,68.3,44.9,71.1,44.9z"/>
	</g>
</g>
</svg>
