<svg xmlns="http://www.w3.org/2000/svg" viewBox="0 0 100 100"><style type="text/css">
	.st0{fill:#99cc99;stroke:#000000;stroke-width:3;stroke-miterlimit:10;}
	.st1{fill:#FFFFFF;}
</style><title>  Recurso 1</title><circle class="st0" cx="50" cy="50" r="48.5"/><path d="M22.7 61.9c-0.2-7.7 3.1-14.4 7.6-20.8 5.8-8.2 11.9-16.3 16.4-25.2 0.8-1.6 1.6-3.1 2.4-4.7 0.3-0.6 0.6-1.1 1.4-1 0.7 0.1 0.9 0.6 1.1 1.1C56 22.4 64.3 31.5 70.9 41.6c5.7 8.6 9 17.6 6.5 27.8 -3.3 13.3-14.2 21.1-29.1 20.4 -13-0.6-23.8-10.3-25.2-23C22.9 65.2 22.9 63.6 22.7 61.9zM36.4 45.4c-4.6 5.1-7.7 15.8-6.7 22.2 0.9 5.6 3.1 10.7 8.5 14 5.3 3.4 11.2 5 17.8 2.7 1-0.4 2.3-0.9 2.2-2.1 -0.2-1.5-1.8-0.8-2.8-0.9 -10.9-0.3-18.6-5.7-21.2-15.1 -1.1-4-1.3-8-0.2-12C34.6 51.5 35.4 48.7 36.4 45.4z"/><path class="st1" d="M36.4 45.4c-0.9 3.3-1.8 6.1-2.5 8.9 -1.1 4-0.9 8 0.2 12 2.7 9.4 10.3 14.8 21.2 15.1 1 0 2.6-0.6 2.8 0.9 0.2 1.1-1.1 1.7-2.2 2.1 -6.5 2.2-12.4 0.6-17.8-2.7 -5.4-3.4-7.6-8.4-8.5-14C28.7 61.2 31.7 50.5 36.4 45.4z"/></svg>
