<svg xmlns="http://www.w3.org/2000/svg" viewBox="0 0 100 100"><defs><style>.cls-1{fill:#fff;stroke:#000;stroke-miterlimit:10;stroke-width:3px;}</style></defs><title>Recurso 8</title><g id="Capa_2" data-name="Capa 2"><g id="Capa_1-2" data-name="Capa 1"><circle class="cls-1" cx="50" cy="50" r="48.5"/><g id="Fnf8Ec.tif"><path d="M45.7,49.42c.53,4.68-2.07,6.93-5.61,8.3-6.71,2.6-13.19,2.15-19.8-1.76,5.54-7.49,12.6-10.27,21.6-9.58l-3.46-3.75,4.42,1.44c-2.45-8-1.72-15.35,3.95-22.44,5.19,4.21,7,9.71,7,15.86,0,4.56-.66,9.08-7,10.31l10.32,8C54,47.31,55,39.78,60.42,32.87,69.6,39,70.26,54.43,61.34,59l5.13,4,5.15,4c-2.77-10.65-1.48-17.49,4-23C84,50.59,85,64.34,76.92,69.81l10.17,6.44-.84,1.38-11.2-6.58c-2.24,9.79-15.86,13.33-25.34,6.58,3.41-6.41,9.71-9.61,19.9-9.88L60,60.35C58.71,70,44.1,73.55,34.67,66.42c5-7.14,12-9.73,21-9.33Z"/><path d="M17.25,23.11c8.4-1,19.35,5.41,21.74,13.18.58,1.88.21,5-1,6.23s-4.34,1.7-6.23,1.15C23.74,41.35,17.29,31.85,17.25,23.11Z"/></g></g></g></svg>