<?xml version="1.0" encoding="utf-8"?>
<!-- Generator: Adobe Illustrator 21.0.0, SVG Export Plug-In . SVG Version: 6.00 Build 0)  -->
<svg version="1.1" id="Capa_1" xmlns="http://www.w3.org/2000/svg" xmlns:xlink="http://www.w3.org/1999/xlink" x="0px" y="0px"
	 viewBox="0 0 100 100" style="enable-background:new 0 0 100 100;" xml:space="preserve">
<style type="text/css">
	.st0{fill:#FFFFFF;stroke:#000000;stroke-width:3;stroke-miterlimit:10;}
</style>
<title>Recurso 8</title>
<g id="Capa_2">
	<g id="Capa_1-2">
		<circle class="st0" cx="50" cy="50" r="48.5"/>
	</g>
</g>
<g id="TUjm71.tif">
	<g>
		<path d="M27.7,60.5c-5.6-4.8-7.3-15.3-0.5-23.5c4.9-5.9,11.3-9.6,18.5-11.8c8.6-2.7,17.4-3.2,26.3-1.9c4.4,0.6,8.7,1.8,13.1,2.8
			c0.3,0.1,0.5,0.2,0.5,0.2c-2.3,5.7-4.6,11.5-7,17.1c-4.6,10.6-11.4,19.6-20.8,26.5c-3.4,2.5-7.1,4.2-11.4,4.1
			c-4.6-0.1-8.3-2.2-11.3-5.6c-0.5-0.6-0.3-1,0-1.5c5.1-8.9,12-16.3,20.5-22.1c3.2-2.2,6.8-4,10.3-6c1.1-0.6,1.6-1.4,1.4-2.6
			c-0.2-1-1-1.9-2-1.9c-0.6,0-1.3,0.2-1.8,0.5c-10.7,5-19.6,12.3-26.8,21.6c-3.7,4.8-7.3,9.7-9.2,15.5c-1,3-1.5,6.1-2.2,9.2
			c-0.4,1.6-1.3,2.5-2.7,2.3c-1.3-0.2-2.1-1.2-1.9-2.9c0.8-6.8,2.9-13.1,6.6-18.9C27.3,61.2,27.5,60.9,27.7,60.5z"/>
	</g>
</g>
</svg>
