<?xml version="1.0" encoding="iso-8859-1"?>
<!-- Generator: Adobe Illustrator 21.0.0, SVG Export Plug-In . SVG Version: 6.00 Build 0)  -->
<svg version="1.1" id="Capa_1" xmlns="http://www.w3.org/2000/svg" xmlns:xlink="http://www.w3.org/1999/xlink" x="0px" y="0px"
	 viewBox="0 0 100 100" style="enable-background:new 0 0 100 100;" xml:space="preserve">
<title>Recurso 9</title>
<g id="ezXy5h.tif">
	<g>
		<path d="M99.955,51.905c-0.06,0.69-0.128,1.38-0.178,2.071c-0.511,7.019-2.462,13.627-5.886,19.761
			c-6.404,11.472-15.793,19.451-28.264,23.691c-6.69,2.274-13.592,3.061-20.609,2.276C30.174,98.043,18.26,91.18,9.386,79.161
			C4.896,73.078,2.171,66.205,0.7,58.805c-0.766-3.853-0.75-7.737-0.652-11.629c0.149-5.942,1.667-11.575,4.001-17.002
			c3.965-9.217,10.19-16.579,18.553-22.077c5.87-3.859,12.31-6.343,19.264-7.525c3.992-0.679,7.981-0.66,11.991-0.421
			c17.384,1.034,35.354,12.662,42.78,31.9c1.892,4.902,2.976,9.98,3.236,15.232c0.009,0.182,0.054,0.362,0.083,0.543
			C99.955,49.185,99.955,50.545,99.955,51.905z M66.869,29.708c4.521-4.496,8.985-8.935,13.451-13.376
			C63.835,1.163,35.911-0.38,17.612,18.251C-0.412,36.601,1.379,64.24,16.315,80.305c4.053-3.9,7.882-8.032,12.161-11.856
			c0.05,0.269,0.073,0.381,0.092,0.494c0.243,1.404,0.462,2.812,0.742,4.209c0.077,0.384,0.022,0.617-0.252,0.89
			c-2.577,2.567-5.138,5.15-7.708,7.724c-0.597,0.598-1.212,1.178-1.821,1.769c16.33,15.034,43.825,16.772,62.213-1.387
			c18.351-18.122,17.149-45.843,1.764-62.64c-0.127,0.164-0.235,0.341-0.378,0.483c-3.57,3.569-7.146,7.133-10.713,10.705
			c-0.239,0.24-0.443,0.361-0.795,0.224c-0.393-0.153-0.814-0.236-1.226-0.339C69.266,30.297,68.134,30.02,66.869,29.708z"/>
		<path style="fill:#FFFFFF;" d="M66.869,29.708c1.265,0.312,2.397,0.59,3.528,0.872c0.412,0.103,0.833,0.186,1.226,0.339
			c0.352,0.137,0.556,0.016,0.795-0.224c3.567-3.572,7.143-7.136,10.713-10.705c0.143-0.142,0.251-0.319,0.378-0.483
			c15.385,16.797,16.586,44.519-1.764,62.64C63.355,100.306,35.86,98.568,19.53,83.534c0.609-0.591,1.223-1.171,1.821-1.769
			c2.57-2.574,5.131-5.157,7.708-7.724c0.274-0.273,0.329-0.506,0.252-0.89c-0.28-1.396-0.499-2.805-0.742-4.209
			c-0.02-0.113-0.042-0.225-0.092-0.494c-4.279,3.824-8.108,7.957-12.161,11.856C1.379,64.24-0.412,36.601,17.612,18.251
			C35.911-0.38,63.835,1.163,80.32,16.331C75.854,20.772,71.39,25.211,66.869,29.708z M49.98,12.592
			c-0.337,0.31-0.685,0.605-1.005,0.928c-4.115,4.15-5.738,9.137-4.865,14.896c0.56,3.691,2.409,6.742,5.028,9.351
			c0.815,0.812,0.831,0.813,1.646-0.004c3.502-3.51,5.383-7.671,5.228-12.706C55.857,20.002,53.624,15.989,49.98,12.592z
			 M64.8,32.808c-0.705,0.061-1.647,0.069-2.561,0.233c-4.461,0.801-7.842,3.109-9.825,7.261c-1.522,3.187-1.815,6.619-1.879,10.082
			c-0.013,0.683,0.245,0.846,0.966,0.683c2.824-0.642,5.569-1.513,8.105-2.941c4.451-2.507,7.601-5.999,8.369-11.245
			c0.135-0.921,0.212-1.856,0.242-2.786c0.023-0.733-0.185-0.938-0.906-1.034C66.554,32.959,65.791,32.905,64.8,32.808z
			 M50.567,82.65c0,0.585-0.002,1.061,0.001,1.536c0.002,0.287,0.147,0.396,0.428,0.334c0.431-0.096,0.864-0.18,1.292-0.285
			c3.459-0.843,6.719-2.119,9.637-4.219c2.914-2.097,4.946-4.79,5.744-8.31c0.309-1.365,0.438-2.778,0.547-4.177
			c0.067-0.857-0.217-1.105-1.064-1.143c-1.22-0.055-2.453-0.17-3.663-0.067c-5.158,0.44-9.027,2.849-11.212,7.651
			C51.009,76.755,50.667,79.739,50.567,82.65z M49.358,49.171c0.017-0.004,0.033-0.008,0.05-0.013
			c-0.217-1.613-0.368-3.239-0.665-4.837c-0.425-2.288-1.132-4.508-2.637-6.329c-3.589-4.344-8.269-5.744-13.728-4.879
			c-0.551,0.087-0.762,0.345-0.744,0.972c0.023,0.796,0.088,1.594,0.193,2.384c0.478,3.587,2.002,6.642,4.738,9.04
			c2.758,2.417,5.998,3.935,9.49,4.957c0.748,0.219,1.507,0.407,2.266,0.586c0.81,0.191,1.029,0.009,1.037-0.811
			C49.361,49.884,49.358,49.528,49.358,49.171z M34.712,66.179c-0.586,0.072-1.511,0.189-2.436,0.3
			c-0.418,0.05-0.588,0.29-0.562,0.694c0.069,1.049,0.057,2.111,0.221,3.145c0.556,3.507,2.067,6.506,4.862,8.789
			c3.459,2.825,7.439,4.491,11.791,5.341c0.715,0.14,0.795,0.11,0.744-0.614c-0.134-1.894-0.221-3.8-0.508-5.674
			c-0.397-2.596-1.286-5.037-2.987-7.096C43.047,67.685,39.327,66.327,34.712,66.179z M49.24,67.944
			c0.049-0.438,0.099-0.687,0.1-0.935c0.017-2.82-0.298-5.593-1.215-8.275c-0.837-2.449-2.031-4.658-4.154-6.269
			c-3.402-2.579-7.273-3.174-11.39-2.757c-0.688,0.07-0.949,0.368-0.94,1.093c0.009,0.761,0.082,1.526,0.183,2.281
			c0.454,3.41,1.788,6.392,4.359,8.745c2.547,2.331,5.515,3.942,8.792,4.977C46.344,67.235,47.75,67.549,49.24,67.944z
			 M50.533,65.943c0,0.255-0.001,0.509,0.001,0.764c0.001,0.136,0.006,0.272,0.013,0.408c0.038,0.759,0.067,0.801,0.803,0.642
			c3.613-0.779,7.038-1.999,10.101-4.143c2.492-1.745,4.505-3.855,5.639-6.727c0.798-2.021,1.145-4.112,1.05-6.28
			c-0.018-0.414-0.087-0.782-0.61-0.839c-1.916-0.205-3.857-0.33-5.74,0.049c-4.614,0.928-7.939,3.525-9.72,7.958
			C51.017,60.396,50.632,63.141,50.533,65.943z"/>
		<path d="M49.98,12.592c3.644,3.398,5.877,7.41,6.033,12.465c0.155,5.035-1.726,9.196-5.228,12.706
			c-0.815,0.817-0.831,0.815-1.646,0.004c-2.62-2.609-4.468-5.659-5.028-9.351c-0.874-5.759,0.75-10.746,4.865-14.896
			C49.295,13.197,49.643,12.902,49.98,12.592z"/>
		<path d="M64.8,32.808c0.991,0.097,1.755,0.151,2.511,0.252c0.721,0.096,0.93,0.302,0.906,1.034
			c-0.03,0.931-0.107,1.865-0.242,2.786c-0.768,5.247-3.918,8.738-8.369,11.245c-2.536,1.428-5.281,2.299-8.105,2.941
			c-0.721,0.164-0.979,0.001-0.966-0.683c0.064-3.464,0.357-6.896,1.879-10.082c1.983-4.152,5.364-6.46,9.825-7.261
			C63.152,32.877,64.094,32.869,64.8,32.808z"/>
		<path d="M50.567,82.65c0.101-2.912,0.442-5.896,1.71-8.681c2.185-4.802,6.054-7.211,11.212-7.651
			c1.211-0.103,2.443,0.013,3.663,0.067c0.847,0.038,1.131,0.287,1.064,1.143c-0.109,1.399-0.238,2.813-0.547,4.177
			c-0.798,3.519-2.83,6.213-5.744,8.31c-2.918,2.1-6.178,3.376-9.637,4.219c-0.428,0.104-0.862,0.188-1.292,0.285
			c-0.281,0.063-0.426-0.047-0.428-0.334C50.564,83.711,50.567,83.236,50.567,82.65z"/>
		<path d="M49.358,49.171c0,0.356,0.003,0.713-0.001,1.069c-0.008,0.82-0.227,1.002-1.037,0.811
			c-0.759-0.179-1.517-0.366-2.266-0.586c-3.491-1.022-6.732-2.541-9.49-4.957c-2.736-2.398-4.261-5.453-4.738-9.04
			c-0.105-0.789-0.169-1.588-0.193-2.384c-0.018-0.627,0.193-0.885,0.744-0.972c5.459-0.864,10.139,0.535,13.728,4.879
			c1.505,1.822,2.211,4.042,2.637,6.329c0.297,1.598,0.449,3.224,0.665,4.837C49.391,49.163,49.375,49.167,49.358,49.171z"/>
		<path d="M34.712,66.179c4.615,0.148,8.334,1.507,11.126,4.885c1.701,2.059,2.59,4.5,2.987,7.096
			c0.287,1.874,0.374,3.779,0.508,5.674c0.051,0.724-0.029,0.753-0.744,0.614c-4.352-0.85-8.332-2.516-11.791-5.341
			c-2.795-2.283-4.306-5.282-4.862-8.789c-0.164-1.034-0.153-2.096-0.221-3.145c-0.026-0.404,0.144-0.644,0.562-0.694
			C33.201,66.368,34.126,66.251,34.712,66.179z"/>
		<path d="M49.24,67.944c-1.49-0.394-2.896-0.708-4.264-1.14c-3.278-1.035-6.245-2.646-8.792-4.977
			c-2.571-2.353-3.906-5.335-4.359-8.745c-0.101-0.756-0.173-1.52-0.183-2.281c-0.009-0.725,0.252-1.023,0.94-1.093
			c4.117-0.417,7.988,0.178,11.39,2.757c2.124,1.61,3.317,3.82,4.154,6.269c0.916,2.681,1.232,5.455,1.215,8.275
			C49.339,67.257,49.288,67.506,49.24,67.944z"/>
		<path d="M50.533,65.943c0.099-2.802,0.484-5.547,1.537-8.167c1.781-4.433,5.106-7.03,9.72-7.958
			c1.883-0.379,3.824-0.254,5.74-0.049c0.523,0.056,0.592,0.424,0.61,0.839c0.096,2.168-0.252,4.258-1.05,6.28
			c-1.134,2.872-3.147,4.982-5.639,6.727c-3.063,2.144-6.488,3.364-10.101,4.143c-0.736,0.159-0.765,0.117-0.803-0.642
			c-0.007-0.136-0.012-0.272-0.013-0.408C50.531,66.452,50.533,66.198,50.533,65.943z"/>
	</g>
</g>
</svg>
