<svg xmlns="http://www.w3.org/2000/svg" viewBox="0 0 100 100"><defs><style>.cls-1{fill:#fff;stroke:#000;stroke-width:3px;}.cls-1,.cls-2{stroke-miterlimit:10;}.cls-2{stroke:#fff;}</style></defs><title>Recurso 9</title><g id="Capa_2" data-name="Capa 2"><g id="Capa_1-2" data-name="Capa 1"><circle class="cls-1" cx="50" cy="50" r="48.5"/><g id="TP9Qnh.tif"><path class="cls-2" d="M53.53,75.86a29.53,29.53,0,0,1-7.89-2.43,30.73,30.73,0,0,1-8.33-5.72A17.73,17.73,0,0,1,33,61a35.62,35.62,0,0,1-1.69-6.61c-.52-3.1-1-6.2-1.53-9.29a41,41,0,0,0-3.72-11.57c-.47-.92-1-1.82-1.53-2.78.33-.16.68-.35,1-.51a27,27,0,0,1,5.67-1.67,50.1,50.1,0,0,1,7.1-.86,56.72,56.72,0,0,1,6.58,0A46.63,46.63,0,0,1,55.1,29.44,28.72,28.72,0,0,1,64.6,34a27.41,27.41,0,0,1,4.9,4.91,24.13,24.13,0,0,1,4.28,8.13,23.15,23.15,0,0,1,.93,7.76,30.81,30.81,0,0,1-4,13.55c-.39.7-.84,1.37-1.26,2.06,0,.08-.11.16-.2.29l-.34-1.54a75.16,75.16,0,0,0-4.11-13.35A28.52,28.52,0,0,0,57,45.3a38.83,38.83,0,0,0-16-8.18l-.23,0-.07,0,1.58.89a49.69,49.69,0,0,1,9.12,6.75,34.45,34.45,0,0,1,6.45,8,34.9,34.9,0,0,1,2.63,6.07,57.54,57.54,0,0,1,2.31,9.35,62,62,0,0,1,.83,8c.08,2.26.1,4.52,0,6.78s-.3,4.26-.47,6.38c0,.33-.08.65-.14,1,.87-.32,1.68-.6,2.48-.91A42.38,42.38,0,0,0,68.74,12a41.82,41.82,0,0,0-11-3.64,42.36,42.36,0,0,0-11.36-.56A42.42,42.42,0,0,0,9.83,36.5a41.54,41.54,0,0,0-1.88,8.29A43,43,0,0,0,7.74,53,42.36,42.36,0,0,0,40.86,91.38a42.58,42.58,0,0,0,9.94,1,41.17,41.17,0,0,0,6.13-.61.35.35,0,0,0,.32-.27,55.28,55.28,0,0,0,2.24-9.64,37.61,37.61,0,0,0,.41-5.31c0-.13,0-.27,0-.43A24.09,24.09,0,0,1,53.53,75.86Z"/><path class="cls-2" d="M59.9,76.11a24.09,24.09,0,0,1-6.37-.25,29.53,29.53,0,0,1-7.89-2.43,30.73,30.73,0,0,1-8.33-5.72A17.73,17.73,0,0,1,33,61a35.62,35.62,0,0,1-1.69-6.61c-.52-3.1-1-6.2-1.53-9.29a41,41,0,0,0-3.72-11.57c-.47-.92-1-1.82-1.53-2.78.33-.16.68-.35,1-.51a27,27,0,0,1,5.67-1.67,50.1,50.1,0,0,1,7.1-.86,56.72,56.72,0,0,1,6.58,0A46.63,46.63,0,0,1,55.1,29.44,28.72,28.72,0,0,1,64.6,34a27.41,27.41,0,0,1,4.9,4.91,24.13,24.13,0,0,1,4.28,8.13,23.15,23.15,0,0,1,.93,7.76,30.81,30.81,0,0,1-4,13.55c-.39.7-.84,1.37-1.26,2.06,0,.08-.11.16-.2.29l-.34-1.54a75.16,75.16,0,0,0-4.11-13.35A28.52,28.52,0,0,0,57,45.3a38.83,38.83,0,0,0-16-8.18l-.23,0-.07,0,1.58.89a49.69,49.69,0,0,1,9.12,6.75,34.45,34.45,0,0,1,6.45,8,34.9,34.9,0,0,1,2.63,6.07,57.54,57.54,0,0,1,2.31,9.35,62,62,0,0,1,.83,8c.08,2.26.1,4.52,0,6.78s-.3,4.26-.47,6.38c0,.33-.08.65-.14,1,.87-.32,1.68-.6,2.48-.91A42.38,42.38,0,0,0,68.74,12a41.82,41.82,0,0,0-11-3.64,42.36,42.36,0,0,0-11.36-.56A42.42,42.42,0,0,0,9.83,36.5a41.54,41.54,0,0,0-1.88,8.29A43,43,0,0,0,7.74,53,42.36,42.36,0,0,0,40.86,91.38a42.58,42.58,0,0,0,9.94,1,41.17,41.17,0,0,0,6.13-.61.35.35,0,0,0,.32-.27,55.28,55.28,0,0,0,2.24-9.64,37.61,37.61,0,0,0,.41-5.31C59.9,76.41,59.9,76.28,59.9,76.11Z"/></g></g></g></svg>