<svg xmlns="http://www.w3.org/2000/svg" viewBox="0 0 100 100"><defs><style>.cls-1,.cls-2{fill:#fff;}.cls-1{stroke:#000;stroke-miterlimit:10;stroke-width:3px;}</style></defs><title>Recurso 3</title><g id="Capa_2" data-name="Capa 2"><g id="Capa_1-2" data-name="Capa 1"><circle class="cls-1" cx="50" cy="50" r="48.5"/><g id="rqrIne.tif"><path d="M58.49,72,53.8,80.43c-9.07-3.1-17-7.58-22.16-16C42,57.35,47.17,48,46,35.69c-1,3.55-1.61,7.43-3.06,11A24.14,24.14,0,0,1,28.07,60.76,3.75,3.75,0,0,1,25,60,43.64,43.64,0,0,1,10.31,37c-.58-2.23-.24-3.56,1.75-5a42.43,42.43,0,0,1,30.81-7.74A58.42,58.42,0,0,1,51,26.18a15.79,15.79,0,0,0,6.69.9A30.1,30.1,0,0,1,72.46,28.8c-1.32,2.23-2.64,4.29-3.75,6.46a2.82,2.82,0,0,0,0,2.38c3,4.49,6.07,8.88,9.32,13.58,5.25-3.09,11.6-4.66,18.74-5.15-2.25,3.08-4.23,5.84-6.27,8.55-1.37,1.82-3,3.47-4.18,5.41a9.66,9.66,0,0,0-1.15,4.22c-.36,5.15-.54,10.32-.82,16.18a43.48,43.48,0,0,1-11.59-16.6c-7.36,4.35-15.42,5.79-23.88,5.51l-.09.65Zm-31-35.57a4.14,4.14,0,0,0-3.88,4.18,4.06,4.06,0,0,0,3.59,3.94c2.69,0,4.55-1.69,4.44-4.15A4.08,4.08,0,0,0,27.48,36.39Z"/><path class="cls-2" d="M27.48,36.39a4.08,4.08,0,0,1,4.15,4c.11,2.46-1.75,4.2-4.44,4.15a4.06,4.06,0,0,1-3.59-3.94A4.14,4.14,0,0,1,27.48,36.39Z"/></g></g></g></svg>