<svg xmlns="http://www.w3.org/2000/svg" viewBox="0 0 100 100"><defs><style>.cls-1{fill:#fff;stroke:#000;stroke-miterlimit:10;stroke-width:3px;}</style></defs><title>Recurso 6</title><g id="Capa_2" data-name="Capa 2"><g id="Capa_1-2" data-name="Capa 1"><circle class="cls-1" cx="50" cy="50" r="48.5"/><g id="obVmlj.tif"><path d="M28.27,16.47A6.33,6.33,0,0,1,32,18.09Q50.38,31.81,68.76,45.48c2,1.48,2.33,2.82,1.08,5.14-2.35,4.38-4.85,8.69-7.28,13-.58,1-1.16,2.08-1.75,3.11a6.37,6.37,0,0,1-.72,1,3,3,0,0,1-4,.95L12.29,51.14a3.9,3.9,0,0,1-2.08-5.9Q17.62,32,25.08,18.79a11,11,0,0,1,1.85-1.95Z"/><path d="M62.45,70.06c3.78-6.48,7.41-13,11-19.57,3.34,2.42,5.61,8.32,2.9,13.81C73.82,69.45,67.54,72,62.45,70.06Z"/><path d="M80.88,71.39A1.56,1.56,0,1,1,79,70.27,1.57,1.57,0,0,1,80.88,71.39Z"/><path d="M89.34,70.05a1.56,1.56,0,1,1-1.9-1.12A1.57,1.57,0,0,1,89.34,70.05Z"/><path d="M87.38,63.06a1.56,1.56,0,1,1-3,.75,1.53,1.53,0,0,1,1.14-1.87A1.55,1.55,0,0,1,87.38,63.06Z"/></g></g></g></svg>