<svg xmlns="http://www.w3.org/2000/svg" viewBox="0 0 100 100"><defs><style>  .cls-1{fill:#f8b200;stroke:#000;stroke-miterlimit:10;stroke-width:3px;}</style></defs><title>  Recurso 6</title><g data-name="Capa 2"><g data-name="Capa 1"><circle class="cls-1" cx="50" cy="50" r="48.5"/><path d="M28.3 16.5A6.3 6.3 0 0 1 32 18.1Q50.4 31.8 68.8 45.5c2 1.5 2.3 2.8 1.1 5.1-2.3 4.4-4.8 8.7-7.3 13-0.6 1-1.2 2.1-1.7 3.1a6.4 6.4 0 0 1-0.7 1 3 3 0 0 1-4 1L12.3 51.1a3.9 3.9 0 0 1-2.1-5.9Q17.6 32 25.1 18.8a11 11 0 0 1 1.9-1.9Z"/><path d="M62.5 70.1c3.8-6.5 7.4-13 11-19.6 3.3 2.4 5.6 8.3 2.9 13.8C73.8 69.5 67.5 72 62.5 70.1Z"/><path d="M80.9 71.4A1.6 1.6 0 1 1 79 70.3 1.6 1.6 0 0 1 80.9 71.4Z"/><path d="M89.3 70.1a1.6 1.6 0 1 1-1.9-1.1A1.6 1.6 0 0 1 89.3 70.1Z"/><path d="M87.4 63.1a1.6 1.6 0 1 1-3 0.8 1.5 1.5 0 0 1 1.1-1.9A1.6 1.6 0 0 1 87.4 63.1Z"/></g></g></svg>
