<svg xmlns="http://www.w3.org/2000/svg" viewBox="0 0 100 100"><defs><style>.cls-1{fill:#cc6666;stroke:#000;stroke-width:3px;}.cls-1,.cls-2{stroke-miterlimit:10;}.cls-2{stroke:#fff;}</style></defs><title>Recurso 1</title><g id="Capa_2" data-name="Capa 2"><g id="Capa_1-2" data-name="Capa 1"><circle class="cls-1" cx="50" cy="50" r="48.5"/><g id="ja9lQ5.tif"><path class="cls-2" d="M20.12,47.78,18.05,57.3H13c-1.08-11.54,8.92-27.71,27-32,2,4.35,4.86,7.79,10.15,7.81s8.24-3.35,10.26-7.75C73.64,27.88,88,40.59,87.85,57.3H82.68l-2-9.51-.63.08c0,3.11.19,6.23,0,9.32-.58,8-3.37,14.87-11.16,18.3a42.46,42.46,0,0,1-11.32,2.93,50.22,50.22,0,0,1-20-1c-10.95-3-15.91-10.22-16.76-21-.22-2.81,0-5.66,0-8.49Z"/><path class="cls-2" d="M41.93,20.11A12.59,12.59,0,0,1,44.28,12C47.63,7.5,53,7.49,56.34,12a13.28,13.28,0,0,1-.05,15.22C53,31.57,47.43,31.52,44.21,27A11.88,11.88,0,0,1,41.93,20.11Z"/><path class="cls-2" d="M45,81.66v7H34.88v-9Z"/><path class="cls-2" d="M56.73,88.71V81.63l10-2v9Z"/></g></g></g></svg>
