<svg xmlns="http://www.w3.org/2000/svg" viewBox="0 0 100 100"><defs><style>  .cls-1{fill:#f74e82;stroke:#000;stroke-width:3px;}.cls-1,.cls-2{stroke-miterlimit:10;}.cls-2{stroke:#fff;}</style></defs><title>  Recurso 1</title><g data-name="Capa 2"><g data-name="Capa 1"><circle class="cls-1" cx="50" cy="50" r="48.5"/><path class="cls-2" d="M20.1 47.8 18.1 57.3H13c-1.1-11.5 8.9-27.7 27-32 2 4.4 4.9 7.8 10.2 7.8s8.2-3.3 10.3-7.7C73.6 27.9 88 40.6 87.9 57.3H82.7l-2-9.5-0.6c0 3.1 6.2 0 9.3-0.6 8-3.4 14.9-11.2 18.3a42.5 42.5 0 0 1-11.3 2.9 50.2 50.2 0 0 1-20-1c-10.9-3-15.9-10.2-16.8-21-0.2-2.8 0-5.7 0-8.5Z"/><path class="cls-2" d="M41.9 20.1A12.6 12.6 0 0 1 44.3 12C47.6 7.5 53 7.5 56.3 12a13.3 13.3 0 0 1 0 15.2C53 31.6 47.4 31.5 44.2 27A11.9 11.9 0 0 1 41.9 20.1Z"/><path class="cls-2" d="M45 81.7v7H34.9v-9Z"/><path class="cls-2" d="M56.7 88.7V81.6l10-2v9Z"/></g></g></svg>
