<svg xmlns="http://www.w3.org/2000/svg" viewBox="0 0 100 100"><defs><style>  .cls-1,.cls-2{fill:#FFCB47;}.cls-1{stroke:#000;stroke-miterlimit:10;stroke-width:3px;}</style></defs><title>  Recurso 5</title><g data-name="Capa 2"><g data-name="Capa 1"><circle class="cls-1" cx="50" cy="50" r="48.5"/><path d="M68 40.9A23.5 23.5 0 0 1 73.7 50a13.5 13.5 0 0 1-7 16.7 24.1 24.1 0 0 1-6.6 2.1c-10.6 1.7-23.1-4.1-28.7-13.3-6.2-10.1-1.5-20.9 10.2-23C51.9 30.6 60.4 34.5 68 40.9Zm1.6 9.4c-2.4-7.8-7.9-12.2-15.4-14.4-5.7-1.7-12.7-0.8-14.7 1.6C51.9 36 61.7 40.7 69.5 50.3Z"/><path d="M10.8 51l13-30.5L26.4 27c1.2 3 2.5 5.9 3.6 8.9a4.1 4.1 0 0 1-0.2 2.6c-0.6 1.7-1.4 3.4-2.1 5-0.2-0.6 1.3-1.1 1.5-5 2.1-10 4.1-15.1 6.1A2.5 2.5 0 0 1 10.8 51Z"/><path d="M92.4 49.8 79.3 80.4c-0.4-0.8-0.7-1.3-0.9-1.7-1.8-4.5-3.6-8.9-5.3-13.4a4.2 4.2 0 0 1 0.2-2.5c0.4-1.3 1.3-2.4 1.6-3.7-1.9 1.5-2.6 3.1-3.3C82.7 53.8 87.3 51.8 92.4 49.8Z"/><path class="cls-2" d="M69.5 50.3C61.7 40.7 51.9 36 39.3 37.6c2-2.5 9-3.3 14.7-1.6C61.6 38.2 67.2 42.6 69.5 50.3Z"/></g></g></svg>
