<svg xmlns="http://www.w3.org/2000/svg" viewBox="0 0 100 100"><defs><style>.cls-1,.cls-2{fill:#fff;}.cls-1{stroke:#000;stroke-miterlimit:10;stroke-width:3px;}</style></defs><title>Recurso 5</title><g id="Capa_2" data-name="Capa 2"><g id="Capa_1-2" data-name="Capa 1"><circle class="cls-1" cx="50" cy="50" r="48.5"/><g id="VGBS6L.tif"><path d="M68,40.91A23.49,23.49,0,0,1,73.68,50a13.54,13.54,0,0,1-7,16.68,24.11,24.11,0,0,1-6.57,2.07c-10.65,1.72-23.08-4.12-28.75-13.33-6.19-10.07-1.47-20.89,10.23-23C51.86,30.56,60.37,34.46,68,40.91Zm1.55,9.43c-2.37-7.78-7.94-12.17-15.45-14.39-5.75-1.7-12.71-.84-14.74,1.63C51.87,36,61.74,40.65,69.54,50.33Z"/><path d="M10.75,51l13-30.5L26.39,27c1.21,2.95,2.49,5.87,3.59,8.86a4.14,4.14,0,0,1-.16,2.56c-.6,1.71-1.37,3.37-2.13,5-.25.55-.61,1.25-1.1,1.46-5,2.1-10,4.11-15.08,6.13A2.47,2.47,0,0,1,10.75,51Z"/><path d="M92.37,49.77,79.25,80.36c-.43-.83-.7-1.26-.88-1.72-1.79-4.47-3.62-8.92-5.3-13.43a4.24,4.24,0,0,1,.22-2.55c.42-1.28,1.33-2.44,1.55-3.73.33-1.92,1.48-2.63,3.11-3.26C82.66,53.83,87.32,51.84,92.37,49.77Z"/><path class="cls-2" d="M69.54,50.33C61.74,40.65,51.87,36,39.34,37.58c2-2.47,9-3.34,14.74-1.63C61.59,38.17,67.17,42.55,69.54,50.33Z"/></g></g></g></svg>